<?xml version="1.0" encoding="iso-8859-1"?>
<!-- Uploaded to: SVG Repo, www.svgrepo.com, Generator: SVG Repo Mixer Tools -->
<svg fill="#6b11cba1" version="1.1" id="Layer_1" xmlns="http://www.w3.org/2000/svg" xmlns:xlink="http://www.w3.org/1999/xlink" 
	 viewBox="0 0 512 512" xml:space="preserve">
<g>
	<g>
		<rect x="172.522" y="345.043" width="33.391" height="66.783"/>
	</g>
</g>
<g>
	<g>
		<rect x="239.304" y="345.043" width="33.391" height="66.783"/>
	</g>
</g>
<g>
	<g>
		<rect x="306.087" y="345.043" width="33.391" height="66.783"/>
	</g>
</g>
<g>
	<g>
		<path d="M389.565,244.87h-267.13c-27.619,0-50.087,22.468-50.087,50.087v166.956c0,27.619,22.468,50.087,50.087,50.087h267.13
			c27.619,0,50.087-22.468,50.087-50.087V294.957C439.652,267.337,417.184,244.87,389.565,244.87z M372.87,428.522
			c0,9.223-7.473,16.696-16.696,16.696c-77.609,0-135.433,0-200.348,0c-9.223,0-16.696-7.473-16.696-16.696V328.348
			c0-9.223,7.473-16.696,16.696-16.696c77.609,0,135.433,0,200.348,0c9.223,0,16.696,7.473,16.696,16.696V428.522z"/>
	</g>
</g>
<g>
	<g>
		<path d="M256,0c-82.858,0-150.261,67.408-150.261,150.261v61.217h83.478v-61.217c0-36.826,29.956-66.783,66.783-66.783
			s66.783,29.956,66.783,66.783v61.217h83.478v-61.217C406.261,67.408,338.858,0,256,0z"/>
	</g>
</g>
</svg>