<?xml version="1.0" encoding="utf-8"?>
<!-- Generator: Adobe Illustrator 27.5.0, SVG Export Plug-In . SVG Version: 6.00 Build 0)  -->
<svg version="1.1" id="Layer_1" xmlns="http://www.w3.org/2000/svg" xmlns:xlink="http://www.w3.org/1999/xlink" x="0px" y="0px"
	 viewBox="991.68 544.384 2015.796 2543.384" style="enable-background:new 0 0 4000 4000;" xml:space="preserve">
<g>
	<g>
		<g>
			<g>
				<path style="fill:#921dd1;" d="M2991.836,2627.188c0.516,35.295-24.637,66.807-60.618,73.109l-394.821,69.328l-123.872,21.772
					l-126.049,22.115h-572.951l-644.742-113.215c-35.981-6.302-61.134-37.814-60.618-73.109c0.057-4.24,0.516-8.537,1.375-12.834
					l8.881-46.122l28.762-149.196c6.073-31.684,21.371-60.963,43.945-84.053l469.247-480.648
					c30.194-30.939,51.394-69.614,61.191-111.783l161.229-694.073h434.411l4.87,20.97l156.358,673.103
					c6.532,28.074,18.105,54.603,34.091,78.322c7.907,11.918,17.017,23.147,27.101,33.461l469.247,480.648
					c22.574,23.09,37.872,52.369,43.945,84.053l28.762,149.196l8.881,46.122C2991.321,2618.651,2991.779,2622.948,2991.836,2627.188
					z"/>
				<path style="fill:#000000;" d="M1713.522,2816.013l-645.176-113.257c-36.865-6.455-63.227-38.247-62.681-75.601
					c0.054-4.385,0.532-8.857,1.421-13.291l37.637-195.303c6.191-32.3,21.621-61.807,44.614-85.327l469.248-480.649
					c29.922-30.659,50.859-68.901,60.542-110.601l161.68-696.006h438.384l161.68,696.006c6.47,27.818,17.822,53.892,33.73,77.49
					c7.783,11.738,16.802,22.871,26.812,33.11l469.248,480.649c22.993,23.521,38.423,53.027,44.614,85.332l37.642,195.313
					c0.879,4.409,1.362,8.882,1.421,13.276l0,0c0.542,37.354-25.82,69.15-62.69,75.601l-644.741,113.218L1713.522,2816.013z
					 M1784.782,1050.979l-160.781,692.139c-9.893,42.588-31.279,81.65-61.841,112.964l-469.248,480.649
					c-22.305,22.817-37.271,51.44-43.276,82.773l-37.642,195.322c-0.83,4.15-1.274,8.315-1.328,12.393
					c-0.513,34.893,24.111,64.585,58.545,70.615l644.746,113.218l572.519-0.039l644.307-113.179
					c34.438-6.03,59.063-35.723,58.555-70.61l0,0c-0.059-4.092-0.503-8.257-1.328-12.383l-37.646-195.332
					c-6.006-31.338-20.972-59.961-43.276-82.778l-469.248-480.649c-10.229-10.464-19.448-21.846-27.397-33.828
					c-16.24-24.092-27.832-50.723-34.443-79.136l-160.781-692.139H1784.782z"/>
			</g>
			<g>
				<circle style="fill:#6c0e9e;" cx="2487.964" cy="2377.095" r="94.06"/>
			</g>
			<g>
				<path style="fill:#000000;" d="M2487.966,2485.481c-59.766,0-108.389-48.623-108.389-108.384
					c0-59.766,48.623-108.389,108.389-108.389c59.761,0,108.384,48.623,108.384,108.389
					C2596.35,2436.858,2547.727,2485.481,2487.966,2485.481z M2487.966,2297.361c-43.97,0-79.736,35.767-79.736,79.736
					c0,43.965,35.767,79.731,79.736,79.731c43.965,0,79.731-35.767,79.731-79.731
					C2567.697,2333.127,2531.931,2297.361,2487.966,2297.361z"/>
			</g>
			<g>
				<path style="fill:#000000;" d="M2528.034,2398.223h-80.141c-7.667,0-13.883-6.215-13.883-13.883v-14.49
					c0-7.667,6.216-13.883,13.883-13.883h80.141c7.667,0,13.883,6.216,13.883,13.883v14.49
					C2541.917,2392.007,2535.701,2398.223,2528.034,2398.223z"/>
			</g>
			<g>
				<path style="fill:#3f045e;" d="M2981.58,2568.232h-99.178l-25.21-130.747c-2.521-13.063-8.766-24.981-18.048-34.492
					l-469.19-480.592c-42.685-43.716-72.536-98.261-86.344-157.791l-143.753-618.73h-279.715l-143.754,618.73
					c-13.808,59.53-43.659,114.075-86.344,157.791l-469.19,480.592c-9.282,9.51-15.527,21.428-18.048,34.492l-25.21,130.747h-99.178
					l28.762-149.196c6.073-31.684,21.371-60.963,43.945-84.053l469.247-480.648c30.194-30.939,51.394-69.614,61.191-111.783
					l161.229-694.073h434.411l161.229,694.073c9.798,42.169,30.997,80.843,61.191,111.783l469.247,480.648
					c22.574,23.09,37.872,52.369,43.945,84.053L2981.58,2568.232z"/>
				<path style="fill:#000000;" d="M2984.606,2570.73h-104.268l-25.601-132.773c-2.427-12.563-8.438-24.053-17.383-33.218
					l-469.189-480.591c-43.003-44.038-73.081-99.009-86.992-158.97l-143.306-616.797h-275.737l-143.306,616.797
					c-13.911,59.961-43.989,114.932-86.992,158.97l-469.189,480.591c-8.945,9.165-14.956,20.654-17.378,33.218l-25.601,132.773
					h-104.272l29.331-152.168c6.191-32.3,21.621-61.807,44.614-85.327l469.248-480.649c29.922-30.659,50.859-68.901,60.542-110.601
					l161.68-696.006h438.384l161.68,696.006c9.683,41.699,30.62,79.941,60.542,110.601l469.248,480.649
					c22.993,23.521,38.423,53.027,44.614,85.332L2984.606,2570.73z M2884.47,2565.73h94.082l-28.188-146.221
					c-6.006-31.338-20.972-59.961-43.276-82.778l-469.248-480.649c-30.566-31.314-51.948-70.376-61.841-112.964l-160.781-692.139
					h-430.434l-160.781,692.139c-9.893,42.588-31.279,81.65-61.841,112.964l-469.248,480.649
					c-22.305,22.817-37.271,51.44-43.276,82.773l-28.188,146.226h94.087l24.819-128.721c2.612-13.525,9.082-25.894,18.716-35.767
					l469.189-480.591c42.358-43.379,71.992-97.534,85.693-156.607l144.204-620.664h283.687l144.204,620.664
					c13.701,59.072,43.335,113.228,85.693,156.607l469.189,480.591c9.634,9.868,16.104,22.236,18.721,35.767L2884.47,2565.73z"/>
			</g>
		
			
			<g>
				<path style="fill:#000000;" d="M2286.477,2830.681h-572.954c-0.996,0-1.992-0.088-2.974-0.259l-644.761-113.179
					c-24.067-4.224-44.956-17.632-58.818-37.754c-13.867-20.122-18.955-44.414-14.331-68.408l37.642-195.273
					c6.777-35.137,23.569-67.246,48.569-92.856l469.214-480.62c28.037-28.711,47.651-64.551,56.733-103.643l161.26-694.111
					c1.812-7.783,8.75-13.296,16.743-13.296h434.399c7.993,0,14.932,5.513,16.743,13.296l161.26,694.106
					c9.082,39.097,28.696,74.937,56.733,103.648l469.214,480.62c24.995,25.601,41.792,57.71,48.569,92.856l37.642,195.273
					c4.624,23.994-0.464,48.286-14.331,68.408c-13.862,20.122-34.751,33.53-58.813,37.754l-644.766,113.179
					C2288.469,2830.593,2287.473,2830.681,2286.477,2830.681z M1715.021,2796.306h569.956l643.291-112.92
					c14.917-2.622,27.861-10.928,36.455-23.398s11.743-27.529,8.877-42.402l-37.642-195.273
					c-5.498-28.516-19.126-54.57-39.409-75.347l-469.214-480.62c-32.427-33.203-55.117-74.658-65.62-119.883l-158.169-680.806
					h-407.095l-158.169,680.81c-10.503,45.22-33.198,86.675-65.62,119.878l-469.214,480.62
					c-20.288,20.781-33.916,46.836-39.409,75.347l-37.641,195.273c-2.866,14.873,0.283,29.932,8.877,42.397
					c8.594,12.476,21.538,20.781,36.46,23.403L1715.021,2796.306z"/>
			</g>
			<g>
				<path style="fill:#000000;" d="M2882.385,2585.422c-8.071,0-15.273-5.718-16.86-13.94l-25.21-130.747
					c-1.88-9.731-6.538-18.633-13.472-25.737l-469.189-480.591c-44.878-45.957-76.27-103.33-90.786-165.913l-140.664-605.425
					h-252.407l-140.664,605.435c-14.517,62.573-45.908,119.946-90.786,165.903l-469.189,480.591
					c-6.934,7.104-11.592,16.006-13.472,25.742l-25.205,130.742c-1.797,9.321-10.781,15.43-20.132,13.628
					c-9.321-1.802-15.425-10.811-13.628-20.132l25.21-130.747c3.159-16.357,10.982-31.313,22.627-43.247l469.189-480.591
					c40.483-41.46,68.804-93.213,81.899-149.663l143.755-618.74c1.812-7.783,8.75-13.296,16.743-13.296h279.712
					c7.993,0,14.932,5.513,16.743,13.296l143.755,618.73c13.096,56.46,41.416,108.213,81.899,149.673l469.189,480.591
					c11.641,11.929,19.468,26.88,22.627,43.237l25.215,130.757c1.797,9.321-4.307,18.33-13.628,20.132
					C2884.558,2585.32,2883.464,2585.422,2882.385,2585.422z"/>
			</g>
			<g>
				<path style="fill:#000000;" d="M1662.028,2585.393H1018.41c-9.492,0-17.188-7.695-17.188-17.188s7.695-17.188,17.188-17.188
					h643.618c9.492,0,17.188,7.695,17.188,17.188S1671.521,2585.393,1662.028,2585.393z"/>
			</g>
			
			<g>
				<path style="fill:#000000;" d="M2981.589,2585.393h-670.356c-9.492,0-17.188-7.695-17.188-17.188s7.695-17.188,17.188-17.188
					h670.356c9.492,0,17.188,7.695,17.188,17.188S2991.081,2585.393,2981.589,2585.393z"/>
			</g>
			<g>
				<path style="fill:#921dd1;" d="M2217.721,1076.496v1412.325h-435.443V1076.496c0-88.578,14.496-175.896,42.399-258.745
					c2.177-6.417,4.411-12.834,6.761-19.194c27.673-75.744,66.634-147.478,116.08-212.508c26.356-34.721,78.609-34.721,104.964,0
					c49.446,65.03,88.407,136.764,116.08,212.508C2200.877,887.02,2217.721,981.042,2217.721,1076.496z"/>
				<path style="fill:#000000;" d="M2220.222,2491.321h-440.444V1076.496c0-88.428,14.307-175.747,42.529-259.541
					c2.188-6.445,4.429-12.886,6.787-19.263c28.008-76.665,67.188-148.384,116.431-213.159
					c13.042-17.173,32.896-27.026,54.478-27.026c21.577,0,41.431,9.853,54.473,27.026c49.253,64.79,88.428,136.509,116.436,213.164
					c32.72,89.575,49.312,183.379,49.312,278.799V2491.321z M1784.777,2486.321h430.444V1076.496
					c0-94.834-16.489-188.057-49.009-277.08c-27.832-76.186-66.768-147.466-115.723-211.855
					c-12.085-15.923-30.488-25.054-50.488-25.054c-20.005,0-38.408,9.131-50.493,25.054
					c-48.945,64.375-87.881,135.654-115.723,211.855c-2.344,6.343-4.575,12.744-6.743,19.141
					c-28.047,83.271-42.266,170.059-42.266,257.939V2486.321z"/>
			</g>
			<g>
				<path style="fill:#000000;" d="M2168.562,798.557c-28.762-23.491-62.452-41.138-99.35-51.05v45.378h-138.425v-45.378
					c-36.898,9.913-70.588,27.559-99.35,51.05c27.673-75.744,66.634-147.478,116.08-212.508c26.356-34.721,78.609-34.721,104.964,0
					C2101.928,651.079,2140.889,722.813,2168.562,798.557z"/>
				<path style="fill:#000000;" d="M1825.964,806.257l3.125-8.56c28.013-76.67,67.192-148.389,116.436-213.164
					c13.042-17.173,32.896-27.026,54.478-27.026c21.577,0,41.431,9.853,54.473,27.026c49.253,64.79,88.428,136.509,116.436,213.164
					l3.125,8.56l-7.056-5.762c-28.359-23.169-60.4-39.883-95.269-49.707v44.595h-143.423v-44.595
					c-34.868,9.824-66.909,26.538-95.268,49.707L1825.964,806.257z M2066.711,744.245l3.149,0.85
					c33.911,9.107,65.239,24.556,93.252,45.967c-27.598-73.047-65.459-141.47-112.622-203.501
					c-12.085-15.923-30.488-25.054-50.488-25.054c-20.005,0-38.408,9.131-50.493,25.054
					c-47.153,62.022-85.015,130.444-112.617,203.501c28.008-21.411,59.336-36.86,93.247-45.967l3.149-0.85v46.138h133.423V744.245z"
					/>
			</g>
			
			
			<g>
				<path style="fill:#000000;" d="M2217.722,2506.008h-435.444c-9.492,0-17.188-7.695-17.188-17.188V1076.496
					c0-179.805,59.917-357.671,168.716-500.83c15.859-20.864,39.985-32.832,66.196-32.832c26.206,0,50.332,11.968,66.191,32.832l0,0
					c108.799,143.159,168.716,321.025,168.716,500.83v1412.324C2234.909,2498.313,2227.214,2506.008,2217.722,2506.008z
					 M1799.465,2471.633h401.069V1076.496c0-172.339-57.432-342.817-161.714-480.029l0,0c-9.297-12.236-23.447-19.258-38.818-19.258
					c-15.376,0-29.526,7.021-38.823,19.258c-104.282,137.212-161.714,307.69-161.714,480.029V2471.633z"/>
			</g>
			<g>
				<path style="fill:#000000;" d="M2168.552,812.883c-3.184,0-6.392-1.059-9.053-3.232c-22.964-18.76-48.452-33.091-75.962-42.734
					v25.967c0,7.91-6.416,14.326-14.326,14.326h-138.423c-7.91,0-14.326-6.416-14.326-14.326v-25.967
					c-27.505,9.644-52.993,23.975-75.962,42.734c-6.133,5.01-15.151,4.092-20.156-2.031c-5.005-6.128-4.092-15.151,2.031-20.156
					c31.079-25.376,66.299-43.477,104.697-53.789c4.307-1.143,8.896-0.239,12.432,2.466c3.535,2.71,5.61,6.914,5.61,11.367v31.05
					h109.771v-31.05c0-4.453,2.075-8.657,5.61-11.367c3.535-2.715,8.13-3.613,12.432-2.466
					c38.403,10.317,73.628,28.413,104.697,53.789c6.128,5.005,7.036,14.028,2.031,20.156
					C2176.823,811.086,2172.707,812.883,2168.552,812.883z"/>
			</g>
			<g>
				<path style="fill:#3f045e;" d="M2001.432,3070.366h-2.865c-25.578,0-46.313-20.735-46.313-46.313v-543.11
					c0-55.416,9.921-110.383,29.294-162.302h0c6.373-17.08,30.531-17.08,36.904,0h0c19.373,51.919,29.294,106.887,29.294,162.302
					v543.11C2047.746,3049.631,2027.011,3070.366,2001.432,3070.366z"/>
				<path style="fill:#000000;" d="M2001.433,3072.869h-2.866c-26.914,0-48.813-21.899-48.813-48.813v-543.11
					c0-55.903,9.912-110.806,29.453-163.179c3.325-8.901,11.289-14.434,20.791-14.438c9.507,0,17.476,5.532,20.801,14.438
					c19.541,52.378,29.448,107.28,29.448,163.179v543.11C2050.246,3050.969,2028.347,3072.869,2001.433,3072.869z
					 M1999.997,2308.328c-5.767,0.005-13.027,2.939-16.104,11.187c-19.336,51.812-29.141,106.128-29.141,161.431v543.11
					c0,24.16,19.653,43.813,43.813,43.813h2.866c24.16,0,43.813-19.653,43.813-43.813v-543.11c0-55.303-9.8-109.614-29.136-161.431
					C2013.034,2311.267,2005.769,2308.328,1999.997,2308.328z"/>
			</g>
			
			<g>
				<path style="fill:#6c0e9e;" d="M2338.041,2901.346h-290.295v-368.599c0-47.465,38.478-85.943,85.943-85.943h12.414
					c106.005,0,191.939,85.934,191.939,191.939V2901.346z"/>
				<path style="fill:#000072;" d="M2340.539,2903.845h-295.293v-371.099c0-48.77,39.673-88.442,88.442-88.442h12.412
					c107.212,0,194.438,87.227,194.438,194.438V2903.845z M2050.246,2898.845h285.293v-260.103
					c0-104.458-84.98-189.438-189.438-189.438h-12.412c-46.011,0-83.442,37.432-83.442,83.442V2898.845z"/>
			</g>
			
			<g>
				<polygon style="fill:#000000;" points="2298.412,2997.315 2047.746,2997.315 2047.746,2901.346 2261.17,2901.346 				"/>
				<path style="fill:#000000;" d="M2302.063,2999.817h-256.816v-100.972h217.637L2302.063,2999.817z M2050.246,2994.817h244.512
					l-35.303-90.972h-209.209V2994.817z"/>
			</g>
			<g>
				<path style="fill:#6c0e9e;" d="M1661.959,2901.346h290.295v-368.599c0-47.465-38.478-85.943-85.943-85.943h-12.414
					c-106.005,0-191.939,85.934-191.939,191.939V2901.346z"/>
				<path style="fill:#000000;" d="M1954.753,2903.845H1659.46v-265.103c0-107.212,87.227-194.438,194.439-194.438h12.412
					c48.77,0,88.443,39.673,88.443,88.442V2903.845z M1664.46,2898.845h285.293v-366.099c0-46.011-37.432-83.442-83.443-83.442
					h-12.412c-104.458,0-189.439,84.98-189.439,189.438V2898.845z"/>
			</g>
			<g>
				<polygon style="fill:#000000;" points="1701.588,2997.315 1952.254,2997.315 1952.254,2901.346 1738.83,2901.346 				"/>
				<path style="fill:#000000;" d="M1954.753,2999.817h-256.816l39.18-100.972h217.637V2999.817z M1705.241,2994.817h244.512
					v-90.972h-209.209L1705.241,2994.817z"/>
			</g>
			<g>
				<path style="fill:#000000;" d="M2001.433,3087.556h-2.866c-35.015,0-63.501-28.486-63.501-63.501v-543.11
					c0-57.661,10.22-114.292,30.381-168.315c5.435-14.57,18.999-23.984,34.551-23.989c15.552,0,29.121,9.414,34.561,23.989
					c20.156,54.028,30.376,110.659,30.376,168.315v543.11C2064.934,3059.07,2036.447,3087.556,2001.433,3087.556z M2000.002,2323.02
					c-1.738,0-2.148,1.099-2.349,1.626c-18.721,50.166-28.213,102.754-28.213,156.299v543.11c0,16.06,13.066,29.126,29.126,29.126
					h2.866c16.06,0,29.126-13.066,29.126-29.126v-543.11c0-53.54-9.492-106.128-28.208-156.299
					C2002.155,2324.124,2001.74,2323.02,2000.002,2323.02z"/>
			</g>
			<g>
				<polygon style="fill:#000000;" points="2298.412,2997.315 2047.746,2997.315 2047.746,2901.346 2261.17,2901.346 				"/>
				<path style="fill:#000000;" d="M2302.063,2999.817h-256.816v-100.972h217.637L2302.063,2999.817z M2050.246,2994.817h244.512
					l-35.303-90.972h-209.209V2994.817z"/>
			</g>
			
			<g>
				<polygon style="fill:#000000;" points="1701.588,2997.315 1952.254,2997.315 1952.254,2901.346 1738.83,2901.346 				"/>
				<path style="fill:#000000;" d="M1954.753,2999.817h-256.816l39.18-100.972h217.637V2999.817z M1705.241,2994.817h244.512
					v-90.972h-209.209L1705.241,2994.817z"/>
			</g>
			
			<g>
				<path style="fill:#000000;" d="M2338.039,2918.533h-290.293c-9.492,0-17.188-7.695-17.188-17.188v-368.599
					c0-56.865,46.265-103.13,103.13-103.13h12.412c115.313,0,209.126,93.813,209.126,209.126v262.603
					C2355.227,2910.837,2347.531,2918.533,2338.039,2918.533z M2064.934,2884.158h255.918v-245.415
					c0-96.357-78.394-174.751-174.751-174.751h-12.412c-37.91,0-68.755,30.845-68.755,68.755V2884.158z"/>
			</g>
			<g>
				<path style="fill:#000000;" d="M2298.41,3014.504h-250.664c-9.492,0-17.188-7.695-17.188-17.188v-95.972
					c0-9.492,7.695-17.188,17.188-17.188h213.423c7.095,0,13.457,4.355,16.025,10.972l37.241,95.972
					c2.051,5.283,1.362,11.245-1.841,15.928C2309.392,3011.707,2304.084,3014.504,2298.41,3014.504z M2064.934,2980.129h208.369
					l-23.901-61.597h-184.468V2980.129z"/>
			</g>
			<g>
				<path style="fill:#000000;" d="M1952.253,2918.533H1661.96c-9.492,0-17.188-7.695-17.188-17.188v-262.603
					c0-115.313,93.814-209.126,209.126-209.126h12.412c56.865,0,103.13,46.265,103.13,103.13v368.599
					C1969.441,2910.837,1961.745,2918.533,1952.253,2918.533z M1679.147,2884.158h255.918v-351.411
					c0-37.91-30.845-68.755-68.755-68.755h-12.412c-96.358,0-174.751,78.394-174.751,174.751V2884.158z"/>
			</g>
			<g>
				<path style="fill:#000000;" d="M1952.253,3014.504h-250.664c-5.674,0-10.981-2.798-14.185-7.476
					c-3.203-4.683-3.892-10.645-1.841-15.928l37.241-95.972c2.568-6.616,8.931-10.972,16.025-10.972h213.423
					c9.492,0,17.188,7.695,17.188,17.188v95.972C1969.441,3006.809,1961.745,3014.504,1952.253,3014.504z M1726.696,2980.129
					h208.369v-61.597h-184.468L1726.696,2980.129z"/>
			</g>
			<g>
				<path style="fill:#000000;" d="M2217.722,1243.503h-435.444c-7.91,0-14.326-6.416-14.326-14.326
					c0-7.91,6.416-14.326,14.326-14.326h435.444c7.91,0,14.326,6.416,14.326,14.326
					C2232.048,1237.087,2225.632,1243.503,2217.722,1243.503z"/>
			</g>
			<g>
				<path style="fill:#000000;" d="M2217.722,1654.822h-435.444c-7.91,0-14.326-6.416-14.326-14.326
					c0-7.91,6.416-14.326,14.326-14.326h435.444c7.91,0,14.326,6.416,14.326,14.326
					C2232.048,1648.406,2225.632,1654.822,2217.722,1654.822z"/>
			</g>
			<g>
				<path style="fill:#000000;" d="M2217.722,2057.976h-435.444c-7.91,0-14.326-6.416-14.326-14.326
					c0-7.91,6.416-14.326,14.326-14.326h435.444c7.91,0,14.326,6.416,14.326,14.326
					C2232.048,2051.56,2225.632,2057.976,2217.722,2057.976z"/>
			</g>
			<g>
				<path style="fill:#000000;" d="M2000.002,2320.159c-7.91,0-14.326-6.416-14.326-14.326V1229.177
					c0-7.91,6.416-14.326,14.326-14.326s14.326,6.416,14.326,14.326v1076.655
					C2014.328,2313.743,2007.912,2320.159,2000.002,2320.159z"/>
			</g>
			<g>
				<path style="fill:#000000;" d="M2143.323,1052.834l-8.26,17.481c-5.452,11.538-20.832,13.915-29.508,4.556
					c-29.29-31.594-65.852-50.366-105.555-50.366s-76.265,18.772-105.555,50.366c-8.676,9.359-24.056,6.982-29.508-4.556
					l-8.26-17.481c-2.304-4.877-2.386-10.572-0.016-15.418c31.4-64.203,83.923-106.301,143.339-106.301
					s111.939,42.098,143.339,106.301C2145.708,1042.262,2145.627,1047.957,2143.323,1052.834z"/>
			</g>
			<g>
				<g>
					<path style="fill:#000000;" d="M2049.178,1194.906h-18.143c-5.538,0-10.027-4.489-10.027-10.027v-18.144
						c0-5.537,4.489-10.027,10.027-10.027h18.143c5.538,0,10.027,4.489,10.027,10.027v18.144
						C2059.205,1190.416,2054.716,1194.906,2049.178,1194.906z"/>
				</g>
				<g>
					<path style="fill:#000000;" d="M1968.965,1194.906h-18.143c-5.538,0-10.027-4.489-10.027-10.027v-18.144
						c0-5.537,4.489-10.027,10.027-10.027h18.143c5.538,0,10.027,4.489,10.027,10.027v18.144
						C1978.992,1190.416,1974.503,1194.906,1968.965,1194.906z"/>
				</g>
			</g>
			<g>
				<rect x="1381.213" y="2322.665" style="fill:#6c0e9e;" width="223.451" height="137.508"/>
			</g>
			<g>
				<path style="fill:#000000;" d="M1604.665,2474.5h-223.452c-7.91,0-14.326-6.416-14.326-14.326v-137.51
					c0-7.91,6.416-14.326,14.326-14.326h223.452c7.91,0,14.326,6.416,14.326,14.326v137.51
					C1618.991,2468.083,1612.575,2474.5,1604.665,2474.5z M1395.539,2445.847h194.8V2336.99h-194.8V2445.847z"/>
			</g>
			<g>
				<rect x="1381.213" y="2322.665" style="fill:#000000;" width="78.781" height="60.16"/>
				<path style="fill:#000000;" d="M1462.492,2385.325h-83.779v-65.161h83.779V2385.325z M1383.713,2380.325h73.779v-55.161h-73.779
					V2380.325z"/>
			</g>
			<g>
				<path style="fill:#000000;" d="M1459.992,2397.151h-78.779c-7.91,0-14.326-6.416-14.326-14.326v-60.161
					c0-7.91,6.416-14.326,14.326-14.326h78.779c7.91,0,14.326,6.416,14.326,14.326v60.161
					C1474.318,2390.735,1467.902,2397.151,1459.992,2397.151z M1395.539,2368.499h50.127v-31.509h-50.127V2368.499z"/>
			</g>
		</g>
	</g>
</g>
</svg>
