<?xml version="1.0" encoding="utf-8"?>
<!-- Generator: Adobe Illustrator 22.0.1, SVG Export Plug-In . SVG Version: 6.00 Build 0)  -->
<svg version="1.1" id="Layer_1" xmlns="http://www.w3.org/2000/svg" xmlns:xlink="http://www.w3.org/1999/xlink" x="0px" y="0px"
	 viewBox="222.045 164.478 405.91 685.522" style="enable-background:new 0 0 850 850;" xml:space="preserve">
<style type="text/css">
	.st0{fill:#042e5e;}
	.st1{fill:#0e519e;}
	.st2{fill:#1d71d1;}
</style>
<g>
	<polygon class="st1" points="366.174,736.738 482.538,733.223 483.706,771.266 367.342,774.782 	"/>
	<polygon class="st2" points="424.916,721.145 432.962,721.271 440.874,721.708 448.741,722.456 456.519,723.516 464.207,724.799 
		471.761,726.438 479.225,728.344 486.6,730.516 493.885,732.956 500.991,735.663 507.918,738.548 514.8,741.745 521.502,745.209 
		528.025,748.896 534.459,752.76 540.713,756.892 546.787,761.246 552.637,765.779 558.398,770.578 563.934,775.512 
		569.291,780.712 574.468,786.046 579.42,791.559 584.149,797.338 588.697,803.162 593.021,809.254 597.166,815.523 
		601.041,821.882 604.692,828.419 608.073,835.09 611.275,841.939 614.162,848.877 614.967,846.696 615.728,844.559 
		616.579,842.423 617.295,840.286 618.056,838.105 618.727,835.88 619.443,833.699 620.024,831.518 620.695,829.248 
		621.276,827.067 621.902,824.842 622.438,822.573 622.974,820.347 623.465,818.033 623.956,815.763 624.402,813.494 
		624.803,811.224 625.204,808.865 625.605,806.551 625.916,804.282 626.272,801.923 626.539,799.565 626.85,797.251 
		627.026,794.892 627.247,792.49 627.468,790.131 627.6,787.728 627.731,785.326 627.817,783.012 627.904,780.565 627.945,778.162 
		627.941,775.759 627.656,765.392 626.877,755.204 625.558,745.105 623.746,735.229 621.484,725.531 618.727,715.923 
		615.522,706.627 611.868,697.465 607.764,688.615 603.301,679.943 598.389,671.494 593.118,663.401 587.443,655.487 
		581.408,647.885 575.015,640.594 568.262,633.615 561.24,626.993 553.814,620.682 546.209,614.727 538.199,609.129 
		529.966,603.887 521.464,599.045 512.692,594.605 503.696,590.609 494.476,587.014 485.032,583.865 475.409,581.205 
		465.652,578.945 455.581,577.176 445.465,575.896 435.171,575.149 424.698,574.848 414.225,575.17 403.933,575.937 
		393.822,577.238 383.845,579.027 374.005,581.306 364.39,583.986 354.956,587.154 345.746,590.767 336.763,594.781 
		328.004,599.239 319.517,604.098 311.299,609.356 303.351,614.97 295.719,620.94 288.357,627.266 281.31,633.902 274.578,640.895 
		268.206,648.198 262.194,655.813 256.542,663.738 251.296,671.886 246.409,680.3 241.972,688.981 237.895,697.84 234.268,707.009 
		231.09,716.312 228.363,725.925 226.13,735.627 224.347,745.507 223.058,755.608 222.309,765.798 222.055,776.165 222.059,778.568 
		222.107,780.971 222.201,783.373 222.294,785.732 222.432,788.134 222.571,790.537 222.799,792.895 223.027,795.297 
		223.211,797.655 223.529,799.969 223.802,802.326 224.165,804.684 224.483,806.953 224.891,809.266 225.299,811.624 
		225.707,813.893 226.16,816.162 226.658,818.43 227.156,820.744 227.699,822.968 228.241,825.237 228.829,827.461 229.462,829.64 
		230.049,831.909 230.727,834.088 231.449,836.268 232.127,838.492 232.849,840.671 233.616,842.806 234.429,844.941 
		235.241,847.076 236.053,849.255 238.92,842.312 242.056,835.456 245.462,828.779 249.093,822.234 252.949,815.868 257.075,809.59 
		261.381,803.49 265.912,797.657 270.623,791.868 275.559,786.346 280.72,781.001 286.061,775.79 291.583,770.845 297.329,766.034 
		303.165,761.49 309.227,757.124 315.469,752.979 321.891,749.102 328.403,745.402 335.095,741.925 341.967,738.715 
		348.885,735.816 355.983,733.094 363.261,730.64 370.629,728.452 378.088,726.532 385.637,724.878 393.321,723.58 401.096,722.504 
		408.96,721.74 416.871,721.287 424.916,721.145 	"/>
	<polygon class="st0" points="424.744,747.617 429.419,747.52 434.051,747.47 438.689,747.597 443.283,747.77 447.879,748.032 452.432,748.34 
		456.989,748.781 461.549,749.311 466.022,749.933 470.496,750.599 474.883,751.358 479.364,752.247 483.71,753.14 488.06,754.166 
		492.367,755.239 496.676,756.4 499.582,749.944 502.394,743.356 505.158,736.681 507.829,729.92 510.408,723.073 512.848,716.096 
		515.284,708.986 517.582,701.791 519.789,694.554 521.902,687.186 523.923,679.732 525.849,672.147 527.731,664.563 
		529.428,656.852 531.122,649.007 532.636,641.167 534.055,633.197 535.428,625.139 536.665,617.085 537.763,608.902 
		538.77,600.677 539.73,592.364 540.552,583.966 541.283,575.571 541.83,567.004 542.333,558.482 542.699,549.876 542.928,541.229 
		543.065,532.496 543.112,523.765 543.02,514.905 542.793,506.05 542.228,492.037 541.349,478.08 540.207,464.308 538.755,450.724 
		537.081,437.235 535.053,423.936 532.851,410.82 530.341,397.935 527.611,385.191 524.571,372.635 521.358,360.306 
		517.885,348.253 514.19,336.34 510.235,324.746 506.107,313.381 501.715,302.201 497.153,291.338 492.373,280.705 487.377,270.39 
		482.211,260.347 476.827,250.578 471.274,241.126 465.55,231.991 459.655,223.128 453.546,214.628 447.358,206.487 
		440.954,198.664 434.471,191.155 427.73,184.055 420.956,177.356 413.922,170.977 406.856,165 400.169,171.393 393.585,178.183 
		387.19,185.279 380.987,192.771 374.886,200.66 368.975,208.855 363.298,217.355 357.721,226.208 352.381,235.41 347.228,244.873 
		342.264,254.643 337.49,264.719 332.949,275.055 328.596,285.653 324.477,296.555 320.545,307.674 316.892,319.097 
		313.424,330.692 310.233,342.501 307.276,354.615 304.548,366.856 302.052,379.357 299.833,392.072 297.89,404.957 
		296.175,417.969 294.781,431.194 293.573,444.591 292.729,458.112 292.114,471.803 291.819,485.618 291.795,499.514 
		292.094,513.623 292.411,522.476 292.859,531.236 293.445,540.036 294.117,548.745 294.876,557.362 295.769,565.931 
		296.794,574.406 297.864,582.88 299.111,591.26 300.446,599.593 301.914,607.832 303.379,615.982 305.021,624.038 306.751,632.047 
		308.615,640.007 310.521,647.877 312.513,655.611 314.685,663.339 316.852,670.934 319.151,678.391 321.539,685.845 
		324.058,693.163 326.619,700.389 329.266,707.479 332.001,714.523 334.869,721.473 337.732,728.289 340.727,734.968 
		343.808,741.556 346.976,748.051 350.187,754.457 353.484,760.726 357.714,759.306 361.946,757.976 366.226,756.689 
		370.509,755.535 374.927,754.377 379.259,753.356 383.684,752.42 388.11,751.53 392.629,750.725 397.151,750.009 401.676,749.427 
		406.249,748.888 410.823,748.439 415.444,748.032 420.071,747.803 424.744,747.617 	"/>
	<polygon class="st2" points="411.235,307.604 417.173,307.47 423.019,307.293 428.913,307.204 434.76,307.072 440.612,307.074 
		446.417,306.987 452.267,306.944 458.075,306.992 463.838,307.04 469.647,307.088 475.366,307.182 481.131,307.276 
		486.852,307.415 492.526,307.511 498.205,307.74 503.883,307.925 501.591,302.201 499.303,296.566 496.879,290.935 
		494.415,285.439 491.953,280.032 489.403,274.672 486.765,269.405 484.129,264.181 481.451,259.048 478.685,254.007 
		475.877,249.056 473.024,244.107 470.132,239.337 467.15,234.569 464.173,229.98 461.151,225.392 458.089,220.939 454.938,216.533 
		451.789,212.217 448.555,208.036 445.278,203.946 441.958,199.902 438.641,195.947 435.283,192.127 431.837,188.399 
		428.393,184.715 424.865,181.212 421.382,177.752 417.769,174.43 414.158,171.152 410.551,168.052 406.856,165 403.401,168.269 
		399.946,171.581 396.543,175.071 393.185,178.604 389.876,182.269 386.569,185.978 383.358,189.863 380.147,193.793 
		377.029,197.809 373.961,201.956 370.895,206.193 367.875,210.474 364.904,214.842 362.026,219.34 359.151,223.928 
		356.368,228.602 353.632,233.319 350.943,238.08 348.258,243.018 345.664,247.954 343.12,253.067 340.621,258.178 338.17,263.377 
		335.812,268.662 333.501,274.035 331.192,279.452 328.975,284.956 326.849,290.501 324.682,296.137 322.653,301.903 
		320.669,307.667 318.778,313.517 324.389,312.991 330.088,312.418 335.746,311.979 341.448,311.495 347.196,311.054 352.9,310.615 
		358.694,310.217 364.444,309.82 370.238,309.422 376.08,309.112 381.879,308.848 387.72,308.493 393.565,308.272 399.453,308.005 
		405.3,307.829 411.235,307.604 	"/>
	<polygon class="st2" points="419.076,563.008 417.672,565.678 416.316,568.482 415.008,571.372 413.708,574.485 412.41,577.688 
		411.207,581.065 410.053,584.575 408.904,588.218 407.804,591.994 406.752,595.901 405.751,599.941 404.752,604.114 
		403.847,608.374 402.99,612.721 402.183,617.245 401.423,621.857 400.713,626.601 400.006,631.433 399.388,636.263 
		398.822,641.315 398.302,646.365 397.877,651.59 397.452,656.815 397.166,662.17 396.837,667.615 396.6,673.101 396.456,678.675 
		396.313,684.292 396.307,689.95 396.303,695.697 396.391,701.486 396.526,707.363 396.749,713.147 397.018,718.975 
		397.373,724.667 397.729,730.403 398.216,736.002 398.701,741.511 399.275,747.018 399.936,752.389 400.548,757.672 
		401.294,762.906 402.038,768.052 402.869,773.105 403.742,778.068 404.657,782.941 405.66,787.722 406.612,792.327 
		407.698,796.883 408.781,801.35 409.904,805.637 411.07,809.878 412.321,813.939 413.525,817.957 414.859,821.793 416.189,825.495 
		417.56,829.062 418.926,832.495 420.334,835.794 421.827,838.957 423.314,841.896 424.8,844.792 426.323,847.464 427.887,850 
		429.293,847.374 430.65,844.615 432,841.634 433.258,838.611 434.555,835.364 435.758,831.987 436.911,828.477 438.061,824.834 
		439.161,821.058 440.257,817.149 441.213,813.066 442.212,808.938 443.116,804.634 443.974,800.286 444.781,795.762 
		445.585,791.15 446.253,786.496 446.96,781.663 447.575,776.744 448.142,771.737 448.661,766.643 449.088,761.462 449.512,756.193 
		449.844,750.881 450.129,745.482 450.364,739.951 450.51,734.422 450.651,728.76 450.656,723.057 450.662,717.355 450.573,711.521 
		450.44,705.734 450.215,699.86 449.946,694.032 449.591,688.341 449.237,682.693 448.795,677.093 448.264,671.541 447.691,666.078 
		447.074,660.662 446.415,655.336 445.67,650.146 444.925,644.956 444.096,639.947 443.221,634.939 442.309,630.156 
		441.306,625.374 440.351,620.681 439.265,616.125 438.182,611.658 437.06,607.371 435.895,603.174 434.643,599.068 
		433.439,595.095 432.105,591.26 430.776,587.558 429.405,583.99 428.038,580.557 426.631,577.258 425.138,574.14 423.694,571.11 
		422.167,568.305 420.642,565.589 419.076,563.008 	"/>
	<polygon class="st1" points="417.354,509.839 413.757,509.859 410.154,509.701 406.635,509.318 403.158,508.844 399.675,508.193 
		396.365,507.313 393.053,506.345 389.823,505.152 386.636,503.869 383.534,502.449 380.562,500.847 377.631,499.111 
		374.83,497.238 372.115,495.228 369.443,493.127 366.945,490.889 364.534,488.514 362.255,486.045 360.108,483.484 
		358.001,480.789 356.118,478.041 354.321,475.158 352.7,472.18 351.17,469.2 349.812,465.992 348.591,462.824 347.546,459.562 
		346.634,456.207 345.898,452.758 345.342,449.303 344.965,445.798 344.764,442.2 344.744,438.595 344.905,435.074 345.247,431.547 
		345.771,428.105 346.477,424.745 347.318,421.382 348.342,418.102 349.503,414.906 350.845,411.75 352.28,408.68 353.898,405.739 
		355.609,402.883 357.546,400.065 359.531,397.334 361.656,394.778 363.917,392.261 366.274,389.92 368.811,387.618 
		371.398,385.448 374.08,383.454 376.898,381.499 379.768,379.765 382.775,378.117 385.878,376.643 389.029,375.302 
		392.229,374.048 395.526,373.058 398.917,372.199 402.403,371.471 405.894,370.92 409.48,370.545 413.071,370.347 416.668,370.328 
		420.271,370.486 423.789,370.825 427.267,371.343 430.75,371.994 434.057,372.785 437.372,373.842 440.6,374.99 443.788,376.274 
		446.89,377.738 449.861,379.295 452.794,381.076 455.593,382.905 458.308,384.915 460.982,387.059 463.478,389.254 465.845,391.63 
		468.167,394.053 470.316,396.658 472.377,399.355 474.306,402.101 476.103,404.984 477.723,407.962 479.255,410.987 
		480.61,414.106 481.833,417.318 482.879,420.624 483.79,423.935 484.524,427.34 485.036,430.84 485.459,434.344 485.614,437.944 
		485.68,441.548 485.473,445.07 485.177,448.595 484.653,452.038 483.948,455.442 483.105,458.761 482.082,462.041 480.922,465.28 
		479.577,468.348 478.143,471.417 476.526,474.404 474.769,477.261 472.877,480.078 470.891,482.764 468.768,485.365 
		466.506,487.881 464.151,490.267 461.612,492.524 459.026,494.694 456.345,496.733 453.526,498.644 450.657,500.422 
		447.648,502.026 444.546,503.499 441.395,504.885 438.149,506.051 434.899,507.129 431.462,507.989 428.021,508.672 
		424.531,509.267 420.945,509.642 417.354,509.839 	"/>
	<polygon class="st0" points="413.81,391.48 411.293,391.6 408.824,391.808 406.36,392.194 403.99,392.712 401.668,393.316 399.351,394.055 
		397.035,394.883 394.858,395.795 392.729,396.839 390.649,397.972 388.617,399.236 386.721,400.541 384.785,401.98 
		382.985,403.461 381.279,405.072 379.618,406.681 378.051,408.422 376.532,410.25 375.15,412.163 373.859,414.074 372.661,416.115 
		371.507,418.11 370.492,420.235 369.616,422.489 368.783,424.698 368.087,426.946 367.484,429.282 367.017,431.657 
		366.641,434.075 366.398,436.444 366.294,438.898 366.327,441.436 366.448,443.928 366.703,446.371 367.093,448.809 367.617,451.2 
		368.227,453.498 368.973,455.793 369.806,457.995 370.773,460.194 371.783,462.302 372.927,464.362 374.204,466.373 
		375.523,468.293 376.931,470.167 378.426,471.948 380.055,473.681 381.725,475.324 383.484,476.875 385.284,478.336 
		387.171,479.705 389.192,481.025 391.166,482.257 393.268,483.308 395.415,484.312 397.604,485.226 399.834,486.05 402.15,486.693 
		404.554,487.289 406.91,487.797 409.305,488.125 411.788,488.362 414.269,488.51 416.788,488.479 419.305,488.358 421.771,488.061 
		424.235,487.675 426.606,487.202 428.927,486.553 431.245,485.814 433.56,484.987 435.738,484.074 437.866,483.03 439.947,481.897 
		441.979,480.633 443.875,479.373 445.811,477.933 447.612,476.453 449.319,474.886 450.979,473.232 452.544,471.447 
		454.065,469.663 455.448,467.795 456.738,465.84 457.937,463.843 459.089,461.759 460.104,459.634 460.982,457.469 
		461.813,455.216 462.509,452.967 463.113,450.632 463.582,448.301 463.958,445.883 464.197,443.425 464.302,440.971 
		464.27,438.477 464.147,435.942 463.892,433.498 463.505,431.149 462.982,428.758 462.369,426.415 461.624,424.121 
		460.791,421.918 459.825,419.764 458.812,417.567 457.668,415.508 456.394,413.585 455.073,411.62 453.667,409.791 
		452.126,407.967 450.542,406.232 448.871,404.589 447.114,403.083 445.313,401.578 443.425,400.209 441.404,398.889 
		439.432,397.701 437.327,396.561 435.18,395.557 432.992,394.643 430.762,393.864 428.401,393.177 426.042,392.58 423.687,392.117 
		421.29,391.744 418.807,391.507 416.33,391.448 413.81,391.48 	"/>
</g>
</svg>
